<svg width="740" height="740" viewBox="0 0 740 740" fill="none" xmlns="http://www.w3.org/2000/svg">
<path d="M358.067 98.638C349.933 100.105 348.733 101.971 349.267 111.838L349.667 120.638L343 120.238C333.4 119.571 331 121.838 331 131.171C331 140.905 334.2 144.505 343.267 144.771C346.867 144.905 349.8 145.038 349.933 145.171C350.2 145.171 349.133 148.371 347.667 151.971C346.2 155.705 345 160.105 345 161.705C345 163.571 343.4 165.971 341 167.705C336.867 170.905 335.933 174.371 338.6 177.038C341 179.438 338.867 180.638 325.667 183.705C304.067 188.905 295.667 194.905 295.667 205.171C295.667 217.571 305 246.105 317.267 270.638C323.133 282.505 325.667 289.171 324.867 290.105C324.2 290.905 321 292.638 317.667 293.838C312.333 295.971 311.667 296.638 309.667 303.305C307.933 309.305 306.867 310.771 302.733 312.905C300.067 314.238 297.4 316.638 296.733 318.371C295.267 322.638 300.467 327.705 307.533 328.771C312.067 329.438 313.133 330.238 313.8 333.171C315 337.838 318.867 341.838 325 344.638C327.8 345.971 330.467 347.838 331 348.905C334.467 358.238 332.333 428.371 327.667 452.371C321.8 482.771 310.467 508.238 293.533 529.038C290.333 532.905 287.4 537.971 287 540.371C285.8 546.105 284.2 547.971 275.667 553.571C256.6 565.971 243.8 588.105 247.533 602.238C248.333 605.171 249.933 608.371 251 609.305C254.2 611.971 253.4 613.838 247 618.371C241.8 621.971 241 623.305 241 627.171C241 635.571 245.267 637.438 270.333 640.238C291.267 642.505 413.267 642.505 446.333 640.105C474.467 638.238 490.467 635.705 495.133 632.638C497.533 631.171 498.333 629.438 498.333 625.838C498.333 621.171 497.533 619.971 489.133 613.571L486.067 611.171L488.867 606.638C492.2 601.038 492.6 592.105 489.667 583.971C485.667 572.638 472.467 557.305 462.333 551.971C456.867 549.171 451.667 543.705 451.667 540.638C451.667 537.705 449.667 534.771 439.267 521.438C422.067 499.571 408.733 463.571 405 428.638C403.267 411.971 401.667 354.905 402.867 350.238C403.4 347.838 405.133 346.371 408.333 345.305C413.533 343.571 419.667 337.038 419.667 333.171C419.667 330.371 420.467 329.971 428.067 328.638C438.333 326.905 439.533 316.771 429.8 312.771C425.933 311.171 424.867 309.705 423.267 304.371C421.667 298.638 420.867 297.571 414.6 294.638C410.867 292.771 407.4 290.771 406.867 290.371C406.467 289.838 409.133 283.305 412.733 275.705C425.8 249.171 432.6 227.971 433.933 210.371L434.733 199.971L429.8 195.305C425 190.771 408.467 184.371 395.4 181.971C389.667 180.905 389.8 181.171 391.933 176.638C393.267 173.571 393 172.771 389.267 168.905C386.867 166.505 385 163.571 385 162.371C385 161.171 383.8 157.305 382.333 153.838C380.867 150.371 379.8 146.905 380.067 146.105C380.333 145.305 383.133 144.638 386.333 144.505C390.867 144.505 392.733 143.705 395.133 140.771C399.267 136.105 399.4 128.371 395.533 123.438C393 120.105 391.933 119.838 385.8 120.238L379 120.638L379.4 112.905C379.933 103.838 377.933 100.638 371.133 99.3046C368.867 98.7713 366.067 98.238 365 98.1046C363.933 97.838 360.733 98.1046 358.067 98.638Z" fill="black"/>
</svg>
