<svg width="740" height="740" viewBox="0 0 740 740" fill="none" xmlns="http://www.w3.org/2000/svg">
<path d="M360.4 146.019C356.133 148.152 352 154.819 352 159.619C352 160.952 353.733 164.419 356 167.086L359.867 172.152L357.2 178.952C354.267 186.686 349.6 194.152 335.333 214.019C319.6 235.752 316.8 241.486 316.8 251.752C316.667 259.219 317.333 261.752 321.067 268.552C323.467 272.952 328 280.152 331.333 284.552C334.667 288.952 337.333 293.219 337.333 294.019C337.333 294.819 335.867 296.152 334 296.952C329.467 298.952 329.733 303.219 334.4 305.486C337.067 306.819 338 308.152 338 311.219C338 314.552 337.067 315.619 332.133 318.019C327.2 320.286 325.867 321.752 324.8 325.886C323.733 329.352 322 331.752 319.333 333.219C314.8 335.752 313.333 341.219 316.667 343.886C317.733 344.819 320.667 346.019 323.067 346.419C325.867 347.086 327.467 348.286 327.733 349.886C328.533 353.619 331.867 357.086 336.8 359.219C340.933 360.952 341.067 361.219 342 372.152C342.933 383.886 340.933 425.219 338.667 439.219C334.933 462.152 324.133 488.419 312.267 503.219C308.8 507.619 305.2 513.352 304.533 515.886C303.6 519.352 301.467 521.752 296.8 524.819C287.067 531.086 281.6 536.952 277.333 545.752C272.933 554.552 272 564.286 275.333 568.686C278.133 572.419 277.733 573.619 272.667 576.952C269.2 579.219 268 580.819 268 583.752C268 592.286 275.067 593.886 321.333 596.019C354.667 597.619 417.333 596.819 444.4 594.419C461.467 592.952 468.933 591.086 471.067 587.752C473.2 584.419 471.067 578.952 466.667 576.286C462.133 573.619 461.733 571.886 464.8 567.086C468.133 562.152 466.4 551.886 461.067 542.952C456 534.552 452 530.552 443.2 524.686C438.533 521.752 436.267 519.086 435.067 515.619C434.133 512.952 430.533 507.086 426.933 502.686C419.467 493.352 410.933 476.819 406.267 462.552C400.533 444.952 398.533 429.486 397.733 394.952L396.933 362.686L403.2 358.952C407.333 356.419 409.733 353.886 410.8 350.952C411.733 348.019 413.067 346.552 414.667 346.552C418.267 346.552 423.733 343.886 424.533 341.619C425.6 338.819 423.2 334.952 419.067 332.952C416.667 331.752 415.067 329.486 414.133 326.019C412.933 321.752 411.6 320.419 406.667 318.019C401.6 315.619 400.667 314.552 400.667 311.219C400.667 308.152 401.6 306.819 404.4 305.486C408.933 303.219 409.2 298.952 404.667 296.952C402.8 296.152 401.333 294.952 401.333 294.419C401.333 293.886 405.2 287.619 410 280.686C420.667 264.819 423.467 256.286 421.333 246.019C419.733 238.152 416.4 232.419 397.733 206.419C391.2 197.086 384.133 185.486 382 180.686L378.267 171.752L381.6 168.152C386.267 163.219 387.067 159.619 384.8 154.019C381.067 145.086 369.733 141.352 360.4 146.019Z" fill="black"/>
</svg>
