<svg width="740" height="740" viewBox="0 0 740 740" fill="none" xmlns="http://www.w3.org/2000/svg">
<path d="M359.8 239.648C342.6 245.114 331 258.714 331 273.514C331 285.114 333.4 290.714 342.067 299.248C346.733 303.781 349.667 307.914 349.4 309.248C349.133 310.448 346.2 312.448 342.333 313.781C328.2 318.848 325.667 320.448 325.667 323.648C325.667 325.914 327.8 328.181 333.667 332.181C342.867 338.448 348.867 346.048 351.267 354.048C353.667 362.048 353.267 387.381 350.6 396.181C347.667 406.181 341.933 414.448 333.533 420.848C329.8 423.648 325.8 428.048 324.867 430.314C323.533 433.648 321.667 435.114 316.867 436.714C304.6 440.848 295.533 451.114 292.333 464.181C290.867 470.181 291 471.248 293.533 475.381L296.333 479.914L291.667 482.714C287.933 484.848 287 486.181 287 489.514C287 492.981 287.8 493.914 291.4 495.514C307.133 502.048 432.6 503.248 447.667 496.981C451.267 495.381 452.333 494.181 452.333 491.648C452.333 488.314 451.933 487.781 445.8 482.981L442.467 480.581L445.4 476.848C448.867 472.448 449 470.848 446.333 461.914C443 450.581 432.867 440.181 422.6 437.381C418.733 436.314 417 434.981 415.667 431.781C414.733 429.381 410.067 424.314 405.533 420.314C399.533 414.981 396.2 410.714 393.133 404.314C389.133 395.781 389 394.848 389 377.514C389 355.248 390.867 348.848 400.067 339.914C403.533 336.581 408.867 332.181 412.067 330.314C421.533 324.448 419.133 320.048 403.533 314.848C399 313.248 394.467 311.114 393.533 309.914C392.067 308.181 392.333 307.381 395.667 304.581C408.6 293.914 412.2 288.048 413.267 276.181C414.467 262.981 405.667 248.981 391.8 242.181C382.733 237.781 369 236.714 359.8 239.648Z" fill="black"/>
</svg>
