<svg width="740" height="740" viewBox="0 0 740 740" fill="none" xmlns="http://www.w3.org/2000/svg">
<path d="M358.107 138.578C349.44 143.912 347.84 154.978 354.507 163.912C356.24 166.312 357.44 168.845 357.04 169.512C356.64 170.178 352.64 172.445 348.24 174.712C337.307 180.178 329.173 188.045 324.64 197.512L320.907 205.378L318.64 202.045C317.44 200.045 315.307 198.578 313.84 198.578C312.373 198.578 311.173 197.912 311.173 197.112C311.173 195.378 301.973 196.712 299.973 198.712C299.173 199.378 299.707 203.112 301.573 208.178C303.173 212.845 306.373 224.045 308.64 233.112C313.173 250.978 318.507 265.378 327.04 282.445C330.107 288.312 332.507 293.778 332.507 294.578C332.507 295.245 329.573 297.378 325.84 299.245C320.907 301.778 319.173 303.378 319.173 305.645C319.173 310.312 316.107 315.112 312.507 315.912C310.507 316.445 308.64 318.178 307.973 320.312C306.24 324.978 309.573 328.578 316.507 329.778C320.907 330.445 321.707 331.245 322.507 334.578C323.44 338.578 327.973 342.845 333.44 344.445C335.04 344.978 336.773 346.712 337.307 348.312C338.773 352.712 338.24 396.978 336.507 416.312C333.573 450.312 322.107 482.312 305.307 503.112C301.173 508.178 297.84 513.512 297.84 514.845C297.84 519.112 295.44 522.178 289.573 525.645C281.44 530.312 270.373 542.578 266.507 550.845C262.24 559.912 261.973 570.045 265.84 574.978C267.307 576.845 268.507 578.578 268.507 578.978C268.507 579.245 266.107 581.112 263.04 583.112C258.24 586.445 257.707 587.112 258.107 591.645C258.64 598.712 263.707 600.712 285.173 602.845C308.107 604.978 415.307 604.978 443.04 602.712C475.573 600.178 481.84 598.178 481.84 590.312C481.84 588.312 480.773 585.645 479.573 584.578C478.24 583.645 475.707 581.645 474.107 580.312L470.907 577.778L473.84 572.845C481.307 560.178 470.107 538.578 449.173 524.845C444.24 521.645 442.24 519.378 441.307 515.912C440.64 513.378 437.707 508.445 434.907 504.978C415.04 480.712 403.573 448.845 400.507 408.445C398.907 388.178 398.373 352.445 399.707 348.312C400.107 346.978 403.173 344.445 406.507 342.845C411.04 340.712 412.64 338.978 413.573 335.645C414.507 331.912 415.573 330.978 420.907 329.512C428.107 327.512 430.773 324.045 428.507 319.778C427.573 318.312 425.173 316.445 423.04 315.645C419.973 314.578 418.907 313.112 417.707 308.312C416.373 303.112 415.307 302.045 409.707 299.112C406.107 297.378 403.173 295.512 403.173 294.978C403.173 294.445 405.84 288.712 409.04 282.045C417.973 263.512 421.573 253.512 427.173 231.512C429.973 220.312 433.307 208.445 434.373 204.978C436.24 198.978 436.24 198.712 433.707 197.912C432.24 197.378 430.24 197.645 429.307 198.445C428.107 199.512 426.907 199.378 425.04 197.912C421.173 194.978 418.64 195.512 415.973 200.045L413.573 204.178L409.573 197.112C404.24 187.245 397.707 180.845 387.04 175.245C381.973 172.578 377.573 170.045 377.307 169.378C376.907 168.845 378.107 166.312 379.84 163.912C384.373 157.778 385.04 153.245 382.373 146.845C378.373 136.845 367.173 132.978 358.107 138.578Z" fill="black"/>
</svg>
