<svg width="740" height="740" viewBox="0 0 740 740" fill="none" xmlns="http://www.w3.org/2000/svg">
<path d="M367.763 190.718C366.03 190.984 364.696 191.918 364.696 192.584C364.696 193.251 362.43 193.784 359.63 193.784C352.83 193.784 351.363 195.651 351.363 204.584V212.051L344.696 216.184L338.03 220.318V208.318C338.03 192.584 337.23 191.118 328.163 191.118C321.096 191.118 313.23 192.984 310.696 195.384C310.03 196.051 309.096 204.984 308.696 215.251L308.03 233.918L303.763 237.251C301.363 239.118 299.363 241.518 299.363 242.584C299.363 243.784 302.563 248.051 306.563 252.184C310.43 256.318 314.03 261.518 314.563 263.518C315.096 265.651 317.496 270.318 320.03 274.051C322.563 277.651 325.363 283.251 326.163 286.184C328.43 294.318 326.963 327.118 322.03 377.784C315.23 448.851 310.296 466.184 293.763 476.851C279.363 486.051 270.03 500.318 270.03 512.851C270.03 517.651 270.696 520.718 272.03 521.784C275.096 524.318 274.43 526.718 269.496 529.651C264.43 532.851 262.963 536.451 264.696 541.251C267.23 547.918 287.23 549.918 362.83 550.718C423.096 551.384 457.496 550.184 469.096 546.984C478.03 544.584 478.963 536.451 470.963 530.984C468.696 529.384 466.43 527.784 466.163 527.651C465.896 527.384 466.963 525.251 468.563 522.718C470.03 520.184 471.363 516.318 471.363 514.051C471.363 502.451 459.496 484.851 446.296 476.718C435.63 470.184 428.43 452.984 424.83 425.118C422.03 403.918 416.696 328.184 416.696 309.518C416.696 287.651 417.63 283.384 424.03 274.318C426.563 270.718 429.363 265.651 430.296 263.118C431.096 260.584 434.163 256.051 437.096 253.118C446.83 243.384 447.763 239.651 441.496 236.718C437.496 234.984 436.696 230.584 436.696 211.251C436.696 202.718 436.03 194.851 435.363 193.784C433.23 190.451 410.83 191.918 408.43 195.651C407.896 196.451 407.363 202.051 407.363 208.051C407.363 214.051 406.83 219.384 406.03 219.784C405.363 220.184 404.696 220.051 404.696 219.384C404.696 218.851 402.296 216.984 399.363 215.251L394.03 212.318V201.918V191.384L389.896 190.584C385.363 189.784 372.563 189.784 367.763 190.718Z" fill="black"/>
</svg>
